<svg xmlns="http://www.w3.org/2000/svg" width="60" height="60" viewBox="0 0 60 60" fill="none">
  <circle cx="30" cy="30" r="28" fill="#EEF2FF" stroke="#4F46E5" stroke-width="2"/>
  <g transform="translate(13, 13)">
    <rect x="2" y="6" width="18" height="14" rx="1" fill="white" stroke="#4F46E5" stroke-width="2"/>
    <rect x="6" y="3" width="10" height="4" rx="1" fill="#4F46E5"/>
    <rect x="4" y="9" width="5" height="4" rx="0.5" fill="#10B981"/>
    <rect x="4" y="14" width="5" height="4" rx="0.5" fill="#F59E0B"/>
    <rect x="11" y="9" width="5" height="4" rx="0.5" fill="#EF4444"/>
    <rect x="11" y="14" width="5" height="4" rx="0.5" fill="#4F46E5"/>
    <path d="M22 10 L28 10 C29 10, 30 11, 30 12 L30 20 C30 21, 29 22, 28 22 L22 22" fill="#FEE2E2" stroke="#EF4444" stroke-width="1.5"/>
    <path d="M26 14 L26 18" stroke="#EF4444" stroke-width="1.5"/>
    <circle cx="26" cy="16" r="2.5" fill="#EF4444"/>
  </g>
</svg>
